<mxfile host="app.diagrams.net" modified="2021-04-06T09:11:17.540Z" agent="5.0 (Windows NT 10.0; Win64; x64) AppleWebKit/537.36 (KHTML, like Gecko) Chrome/89.0.4389.114 Safari/537.36" etag="lmH-c6sRn8QZN7LRSiVa" version="14.5.6" type="github">
  <diagram id="R2lEEEUBdFMjLlhIrx00" name="Page-1">
    <mxGraphModel dx="2910" dy="775" grid="1" gridSize="10" guides="1" tooltips="1" connect="1" arrows="1" fold="1" page="1" pageScale="1" pageWidth="850" pageHeight="1100" math="0" shadow="0" extFonts="Permanent Marker^https://fonts.googleapis.com/css?family=Permanent+Marker">
      <root>
        <mxCell id="0" />
        <mxCell id="1" parent="0" />
        <mxCell id="_CHvoFrD6mSaw10JFjYY-32" value="1" style="edgeStyle=orthogonalEdgeStyle;rounded=0;orthogonalLoop=1;jettySize=auto;html=1;endArrow=none;endFill=0;" parent="1" source="_CHvoFrD6mSaw10JFjYY-2" target="_CHvoFrD6mSaw10JFjYY-12" edge="1">
          <mxGeometry relative="1" as="geometry" />
        </mxCell>
        <mxCell id="YfYcxpr3XRQJxf8hliLk-14" style="edgeStyle=orthogonalEdgeStyle;curved=1;rounded=0;orthogonalLoop=1;jettySize=auto;html=1;exitX=0.5;exitY=0;exitDx=0;exitDy=0;entryX=1;entryY=0.5;entryDx=0;entryDy=0;endArrow=none;endFill=0;" edge="1" parent="1" source="_CHvoFrD6mSaw10JFjYY-2" target="YfYcxpr3XRQJxf8hliLk-13">
          <mxGeometry relative="1" as="geometry" />
        </mxCell>
        <mxCell id="_CHvoFrD6mSaw10JFjYY-2" value="&lt;div&gt;Kunder&lt;/div&gt;" style="rounded=0;whiteSpace=wrap;html=1;" parent="1" vertex="1">
          <mxGeometry x="80" y="180" width="120" height="60" as="geometry" />
        </mxCell>
        <mxCell id="_CHvoFrD6mSaw10JFjYY-5" style="edgeStyle=orthogonalEdgeStyle;rounded=0;orthogonalLoop=1;jettySize=auto;html=1;exitX=1;exitY=0.5;exitDx=0;exitDy=0;entryX=0;entryY=0.5;entryDx=0;entryDy=0;endArrow=none;endFill=0;" parent="1" source="_CHvoFrD6mSaw10JFjYY-3" target="_CHvoFrD6mSaw10JFjYY-4" edge="1">
          <mxGeometry relative="1" as="geometry" />
        </mxCell>
        <mxCell id="_CHvoFrD6mSaw10JFjYY-7" style="edgeStyle=orthogonalEdgeStyle;rounded=0;orthogonalLoop=1;jettySize=auto;html=1;exitX=0;exitY=0.5;exitDx=0;exitDy=0;entryX=1;entryY=0.5;entryDx=0;entryDy=0;endArrow=none;endFill=0;" parent="1" source="_CHvoFrD6mSaw10JFjYY-3" target="_CHvoFrD6mSaw10JFjYY-2" edge="1">
          <mxGeometry relative="1" as="geometry" />
        </mxCell>
        <mxCell id="_CHvoFrD6mSaw10JFjYY-3" value="Bor " style="rhombus;whiteSpace=wrap;html=1;" parent="1" vertex="1">
          <mxGeometry x="250" y="170" width="80" height="80" as="geometry" />
        </mxCell>
        <mxCell id="_CHvoFrD6mSaw10JFjYY-4" value="&lt;div&gt;Adress&lt;/div&gt;" style="rounded=0;whiteSpace=wrap;html=1;" parent="1" vertex="1">
          <mxGeometry x="360" y="180" width="120" height="60" as="geometry" />
        </mxCell>
        <mxCell id="YfYcxpr3XRQJxf8hliLk-8" style="edgeStyle=orthogonalEdgeStyle;curved=1;rounded=0;orthogonalLoop=1;jettySize=auto;html=1;exitX=0;exitY=0.5;exitDx=0;exitDy=0;entryX=1;entryY=0.5;entryDx=0;entryDy=0;endArrow=none;endFill=0;" edge="1" parent="1" source="_CHvoFrD6mSaw10JFjYY-8" target="YfYcxpr3XRQJxf8hliLk-7">
          <mxGeometry relative="1" as="geometry" />
        </mxCell>
        <mxCell id="_CHvoFrD6mSaw10JFjYY-8" value="&lt;div&gt;Stad&lt;/div&gt;" style="ellipse;whiteSpace=wrap;html=1;" parent="1" vertex="1">
          <mxGeometry x="560" y="360" width="120" height="80" as="geometry" />
        </mxCell>
        <mxCell id="YfYcxpr3XRQJxf8hliLk-12" style="edgeStyle=orthogonalEdgeStyle;curved=1;rounded=0;orthogonalLoop=1;jettySize=auto;html=1;exitX=0;exitY=0.5;exitDx=0;exitDy=0;entryX=1;entryY=0.5;entryDx=0;entryDy=0;endArrow=none;endFill=0;" edge="1" parent="1" source="_CHvoFrD6mSaw10JFjYY-9" target="_CHvoFrD6mSaw10JFjYY-4">
          <mxGeometry relative="1" as="geometry" />
        </mxCell>
        <mxCell id="_CHvoFrD6mSaw10JFjYY-9" value="Adress" style="ellipse;whiteSpace=wrap;html=1;" parent="1" vertex="1">
          <mxGeometry x="540" y="170" width="120" height="80" as="geometry" />
        </mxCell>
        <mxCell id="_CHvoFrD6mSaw10JFjYY-21" value="" style="edgeStyle=orthogonalEdgeStyle;rounded=0;orthogonalLoop=1;jettySize=auto;html=1;endArrow=none;endFill=0;" parent="1" source="_CHvoFrD6mSaw10JFjYY-11" edge="1">
          <mxGeometry relative="1" as="geometry">
            <mxPoint x="55" y="720" as="targetPoint" />
          </mxGeometry>
        </mxCell>
        <mxCell id="_CHvoFrD6mSaw10JFjYY-24" value="" style="edgeStyle=orthogonalEdgeStyle;rounded=0;orthogonalLoop=1;jettySize=auto;html=1;endArrow=none;endFill=0;curved=1;exitX=1;exitY=0.25;exitDx=0;exitDy=0;" parent="1" source="_CHvoFrD6mSaw10JFjYY-11" target="_CHvoFrD6mSaw10JFjYY-19" edge="1">
          <mxGeometry relative="1" as="geometry" />
        </mxCell>
        <mxCell id="_CHvoFrD6mSaw10JFjYY-50" value="&lt;div&gt;1&lt;/div&gt;" style="edgeStyle=orthogonalEdgeStyle;rounded=0;orthogonalLoop=1;jettySize=auto;html=1;endArrow=none;endFill=0;shape=link;" parent="1" source="_CHvoFrD6mSaw10JFjYY-11" target="_CHvoFrD6mSaw10JFjYY-47" edge="1">
          <mxGeometry relative="1" as="geometry" />
        </mxCell>
        <mxCell id="YfYcxpr3XRQJxf8hliLk-24" style="edgeStyle=orthogonalEdgeStyle;curved=1;rounded=0;orthogonalLoop=1;jettySize=auto;html=1;exitX=1;exitY=0.75;exitDx=0;exitDy=0;entryX=0;entryY=0.5;entryDx=0;entryDy=0;endArrow=none;endFill=0;" edge="1" parent="1" source="_CHvoFrD6mSaw10JFjYY-11" target="YfYcxpr3XRQJxf8hliLk-23">
          <mxGeometry relative="1" as="geometry" />
        </mxCell>
        <mxCell id="_CHvoFrD6mSaw10JFjYY-11" value="Produkt" style="rounded=0;whiteSpace=wrap;html=1;" parent="1" vertex="1">
          <mxGeometry x="80" y="695" width="120" height="60" as="geometry" />
        </mxCell>
        <mxCell id="_CHvoFrD6mSaw10JFjYY-33" value="N" style="edgeStyle=orthogonalEdgeStyle;rounded=0;orthogonalLoop=1;jettySize=auto;html=1;endArrow=none;endFill=0;shape=link;" parent="1" source="_CHvoFrD6mSaw10JFjYY-12" target="_CHvoFrD6mSaw10JFjYY-29" edge="1">
          <mxGeometry relative="1" as="geometry" />
        </mxCell>
        <mxCell id="_CHvoFrD6mSaw10JFjYY-12" value="LÃ¤gger" style="rhombus;whiteSpace=wrap;html=1;" parent="1" vertex="1">
          <mxGeometry x="100" y="300" width="80" height="80" as="geometry" />
        </mxCell>
        <mxCell id="_CHvoFrD6mSaw10JFjYY-14" value="lagerstatus" style="ellipse;whiteSpace=wrap;html=1;" parent="1" vertex="1">
          <mxGeometry x="-30" y="695" width="90" height="50" as="geometry" />
        </mxCell>
        <mxCell id="_CHvoFrD6mSaw10JFjYY-26" style="edgeStyle=orthogonalEdgeStyle;rounded=0;orthogonalLoop=1;jettySize=auto;html=1;exitX=1;exitY=0;exitDx=0;exitDy=0;endArrow=none;endFill=0;curved=1;" parent="1" source="_CHvoFrD6mSaw10JFjYY-15" edge="1">
          <mxGeometry relative="1" as="geometry">
            <mxPoint x="95" y="755" as="targetPoint" />
          </mxGeometry>
        </mxCell>
        <mxCell id="_CHvoFrD6mSaw10JFjYY-15" value="Namn" style="ellipse;whiteSpace=wrap;html=1;" parent="1" vertex="1">
          <mxGeometry x="-30" y="785" width="90" height="60" as="geometry" />
        </mxCell>
        <mxCell id="_CHvoFrD6mSaw10JFjYY-58" style="edgeStyle=orthogonalEdgeStyle;rounded=0;orthogonalLoop=1;jettySize=auto;html=1;endArrow=none;endFill=0;entryX=0.75;entryY=0;entryDx=0;entryDy=0;curved=1;" parent="1" source="_CHvoFrD6mSaw10JFjYY-17" edge="1" target="_CHvoFrD6mSaw10JFjYY-11">
          <mxGeometry relative="1" as="geometry">
            <mxPoint x="190" y="690" as="targetPoint" />
          </mxGeometry>
        </mxCell>
        <mxCell id="_CHvoFrD6mSaw10JFjYY-17" value="Beskrivning" style="ellipse;whiteSpace=wrap;html=1;" parent="1" vertex="1">
          <mxGeometry x="220" y="620" width="90" height="50" as="geometry" />
        </mxCell>
        <mxCell id="_CHvoFrD6mSaw10JFjYY-19" value="Bild" style="ellipse;whiteSpace=wrap;html=1;" parent="1" vertex="1">
          <mxGeometry x="315" y="650" width="90" height="60" as="geometry" />
        </mxCell>
        <mxCell id="_CHvoFrD6mSaw10JFjYY-28" style="edgeStyle=orthogonalEdgeStyle;rounded=0;orthogonalLoop=1;jettySize=auto;html=1;exitX=1;exitY=0.5;exitDx=0;exitDy=0;endArrow=none;endFill=0;curved=1;entryX=0.25;entryY=0;entryDx=0;entryDy=0;" parent="1" source="_CHvoFrD6mSaw10JFjYY-20" target="_CHvoFrD6mSaw10JFjYY-11" edge="1">
          <mxGeometry relative="1" as="geometry">
            <mxPoint x="70" y="650" as="targetPoint" />
          </mxGeometry>
        </mxCell>
        <mxCell id="_CHvoFrD6mSaw10JFjYY-20" value="&lt;div&gt;Pris&lt;/div&gt;" style="ellipse;whiteSpace=wrap;html=1;" parent="1" vertex="1">
          <mxGeometry x="-30" y="600" width="90" height="60" as="geometry" />
        </mxCell>
        <mxCell id="_CHvoFrD6mSaw10JFjYY-49" value="N" style="edgeStyle=orthogonalEdgeStyle;rounded=0;orthogonalLoop=1;jettySize=auto;html=1;endArrow=none;endFill=0;shape=link;" parent="1" source="_CHvoFrD6mSaw10JFjYY-29" target="_CHvoFrD6mSaw10JFjYY-47" edge="1">
          <mxGeometry relative="1" as="geometry" />
        </mxCell>
        <mxCell id="YfYcxpr3XRQJxf8hliLk-17" style="edgeStyle=orthogonalEdgeStyle;curved=1;rounded=0;orthogonalLoop=1;jettySize=auto;html=1;exitX=0;exitY=0.5;exitDx=0;exitDy=0;entryX=1;entryY=0.5;entryDx=0;entryDy=0;endArrow=none;endFill=0;" edge="1" parent="1" source="_CHvoFrD6mSaw10JFjYY-29" target="YfYcxpr3XRQJxf8hliLk-16">
          <mxGeometry relative="1" as="geometry" />
        </mxCell>
        <mxCell id="_CHvoFrD6mSaw10JFjYY-29" value="Order" style="rounded=0;whiteSpace=wrap;html=1;" parent="1" vertex="1">
          <mxGeometry x="80" y="420" width="120" height="60" as="geometry" />
        </mxCell>
        <mxCell id="_CHvoFrD6mSaw10JFjYY-44" value="" style="edgeStyle=orthogonalEdgeStyle;rounded=0;orthogonalLoop=1;jettySize=auto;html=1;endArrow=none;endFill=0;" parent="1" source="_CHvoFrD6mSaw10JFjYY-35" target="_CHvoFrD6mSaw10JFjYY-29" edge="1">
          <mxGeometry relative="1" as="geometry" />
        </mxCell>
        <mxCell id="_CHvoFrD6mSaw10JFjYY-35" value="Orderdatum" style="ellipse;whiteSpace=wrap;html=1;" parent="1" vertex="1">
          <mxGeometry x="230" y="420" width="100" height="60" as="geometry" />
        </mxCell>
        <mxCell id="_CHvoFrD6mSaw10JFjYY-48" value="" style="edgeStyle=orthogonalEdgeStyle;rounded=0;orthogonalLoop=1;jettySize=auto;html=1;endArrow=none;endFill=0;" parent="1" source="_CHvoFrD6mSaw10JFjYY-36" target="_CHvoFrD6mSaw10JFjYY-47" edge="1">
          <mxGeometry relative="1" as="geometry" />
        </mxCell>
        <mxCell id="_CHvoFrD6mSaw10JFjYY-36" value="Kvantitet" style="ellipse;whiteSpace=wrap;html=1;" parent="1" vertex="1">
          <mxGeometry x="230" y="550" width="100" height="60" as="geometry" />
        </mxCell>
        <mxCell id="_CHvoFrD6mSaw10JFjYY-47" value="InnehÃ¥ller" style="rhombus;whiteSpace=wrap;html=1;" parent="1" vertex="1">
          <mxGeometry x="100" y="540" width="80" height="80" as="geometry" />
        </mxCell>
        <mxCell id="_CHvoFrD6mSaw10JFjYY-53" value="Kategori" style="rounded=0;whiteSpace=wrap;html=1;" parent="1" vertex="1">
          <mxGeometry x="80" y="990" width="120" height="60" as="geometry" />
        </mxCell>
        <mxCell id="_CHvoFrD6mSaw10JFjYY-59" value="M" style="edgeStyle=orthogonalEdgeStyle;rounded=0;orthogonalLoop=1;jettySize=auto;html=1;endArrow=none;endFill=0;" parent="1" source="_CHvoFrD6mSaw10JFjYY-56" target="_CHvoFrD6mSaw10JFjYY-53" edge="1">
          <mxGeometry relative="1" as="geometry" />
        </mxCell>
        <mxCell id="_CHvoFrD6mSaw10JFjYY-60" value="N" style="edgeStyle=orthogonalEdgeStyle;rounded=0;orthogonalLoop=1;jettySize=auto;html=1;exitX=0.5;exitY=0;exitDx=0;exitDy=0;endArrow=none;endFill=0;entryX=0.5;entryY=1;entryDx=0;entryDy=0;curved=1;" parent="1" source="_CHvoFrD6mSaw10JFjYY-56" edge="1" target="_CHvoFrD6mSaw10JFjYY-11">
          <mxGeometry relative="1" as="geometry">
            <mxPoint x="140" y="760" as="targetPoint" />
          </mxGeometry>
        </mxCell>
        <mxCell id="_CHvoFrD6mSaw10JFjYY-67" style="edgeStyle=orthogonalEdgeStyle;rounded=0;orthogonalLoop=1;jettySize=auto;html=1;exitX=0;exitY=0.5;exitDx=0;exitDy=0;endArrow=none;endFill=0;curved=1;entryX=0;entryY=0.5;entryDx=0;entryDy=0;" parent="1" source="_CHvoFrD6mSaw10JFjYY-56" target="_CHvoFrD6mSaw10JFjYY-53" edge="1">
          <mxGeometry relative="1" as="geometry">
            <mxPoint x="80" y="990" as="targetPoint" />
            <Array as="points">
              <mxPoint x="40" y="885" />
              <mxPoint x="40" y="1020" />
            </Array>
          </mxGeometry>
        </mxCell>
        <mxCell id="_CHvoFrD6mSaw10JFjYY-56" value="TillhÃ¶r" style="rhombus;whiteSpace=wrap;html=1;" parent="1" vertex="1">
          <mxGeometry x="100" y="845" width="80" height="80" as="geometry" />
        </mxCell>
        <mxCell id="_CHvoFrD6mSaw10JFjYY-66" value="" style="edgeStyle=orthogonalEdgeStyle;rounded=0;orthogonalLoop=1;jettySize=auto;html=1;endArrow=none;endFill=0;curved=1;" parent="1" source="_CHvoFrD6mSaw10JFjYY-61" target="_CHvoFrD6mSaw10JFjYY-64" edge="1">
          <mxGeometry relative="1" as="geometry" />
        </mxCell>
        <mxCell id="_CHvoFrD6mSaw10JFjYY-61" value="Typ" style="ellipse;whiteSpace=wrap;html=1;" parent="1" vertex="1">
          <mxGeometry x="300" y="960" width="90" height="60" as="geometry" />
        </mxCell>
        <mxCell id="_CHvoFrD6mSaw10JFjYY-65" style="edgeStyle=orthogonalEdgeStyle;rounded=0;orthogonalLoop=1;jettySize=auto;html=1;exitX=0;exitY=0.5;exitDx=0;exitDy=0;entryX=0.75;entryY=1;entryDx=0;entryDy=0;endArrow=none;endFill=0;curved=1;" parent="1" source="YfYcxpr3XRQJxf8hliLk-21" target="_CHvoFrD6mSaw10JFjYY-11" edge="1">
          <mxGeometry relative="1" as="geometry" />
        </mxCell>
        <mxCell id="_CHvoFrD6mSaw10JFjYY-64" value="StorleksTyp" style="rounded=0;whiteSpace=wrap;html=1;" parent="1" vertex="1">
          <mxGeometry x="285" y="855" width="120" height="60" as="geometry" />
        </mxCell>
        <mxCell id="YfYcxpr3XRQJxf8hliLk-2" style="edgeStyle=orthogonalEdgeStyle;curved=1;rounded=0;orthogonalLoop=1;jettySize=auto;html=1;exitX=1;exitY=0.5;exitDx=0;exitDy=0;entryX=0.25;entryY=0;entryDx=0;entryDy=0;endArrow=none;endFill=0;" edge="1" parent="1" source="YfYcxpr3XRQJxf8hliLk-1" target="_CHvoFrD6mSaw10JFjYY-2">
          <mxGeometry relative="1" as="geometry" />
        </mxCell>
        <mxCell id="YfYcxpr3XRQJxf8hliLk-1" value="Telefonnummer" style="ellipse;whiteSpace=wrap;html=1;" vertex="1" parent="1">
          <mxGeometry x="-140" y="80" width="120" height="80" as="geometry" />
        </mxCell>
        <mxCell id="YfYcxpr3XRQJxf8hliLk-4" style="edgeStyle=orthogonalEdgeStyle;curved=1;rounded=0;orthogonalLoop=1;jettySize=auto;html=1;exitX=1;exitY=0.5;exitDx=0;exitDy=0;entryX=0;entryY=0.5;entryDx=0;entryDy=0;endArrow=none;endFill=0;" edge="1" parent="1" source="YfYcxpr3XRQJxf8hliLk-3" target="_CHvoFrD6mSaw10JFjYY-2">
          <mxGeometry relative="1" as="geometry" />
        </mxCell>
        <mxCell id="YfYcxpr3XRQJxf8hliLk-3" value="e-post" style="ellipse;whiteSpace=wrap;html=1;" vertex="1" parent="1">
          <mxGeometry x="-150" y="170" width="120" height="80" as="geometry" />
        </mxCell>
        <mxCell id="YfYcxpr3XRQJxf8hliLk-6" style="edgeStyle=orthogonalEdgeStyle;curved=1;rounded=0;orthogonalLoop=1;jettySize=auto;html=1;exitX=1;exitY=0.5;exitDx=0;exitDy=0;entryX=0.25;entryY=1;entryDx=0;entryDy=0;endArrow=none;endFill=0;" edge="1" parent="1" source="YfYcxpr3XRQJxf8hliLk-5" target="_CHvoFrD6mSaw10JFjYY-2">
          <mxGeometry relative="1" as="geometry" />
        </mxCell>
        <mxCell id="YfYcxpr3XRQJxf8hliLk-5" value="Namn" style="ellipse;whiteSpace=wrap;html=1;" vertex="1" parent="1">
          <mxGeometry x="-140" y="260" width="120" height="80" as="geometry" />
        </mxCell>
        <mxCell id="YfYcxpr3XRQJxf8hliLk-7" value="Stad" style="rounded=0;whiteSpace=wrap;html=1;" vertex="1" parent="1">
          <mxGeometry x="360" y="370" width="120" height="60" as="geometry" />
        </mxCell>
        <mxCell id="YfYcxpr3XRQJxf8hliLk-10" value="" style="edgeStyle=orthogonalEdgeStyle;curved=1;rounded=0;orthogonalLoop=1;jettySize=auto;html=1;endArrow=none;endFill=0;" edge="1" parent="1" source="YfYcxpr3XRQJxf8hliLk-9" target="YfYcxpr3XRQJxf8hliLk-7">
          <mxGeometry relative="1" as="geometry" />
        </mxCell>
        <mxCell id="YfYcxpr3XRQJxf8hliLk-11" value="" style="edgeStyle=orthogonalEdgeStyle;curved=1;rounded=0;orthogonalLoop=1;jettySize=auto;html=1;endArrow=none;endFill=0;" edge="1" parent="1" source="YfYcxpr3XRQJxf8hliLk-9" target="_CHvoFrD6mSaw10JFjYY-4">
          <mxGeometry relative="1" as="geometry" />
        </mxCell>
        <mxCell id="YfYcxpr3XRQJxf8hliLk-9" value="TillhÃ¶r" style="rhombus;whiteSpace=wrap;html=1;" vertex="1" parent="1">
          <mxGeometry x="380" y="260" width="80" height="80" as="geometry" />
        </mxCell>
        <mxCell id="YfYcxpr3XRQJxf8hliLk-13" value="LÃ¶senordsHash&lt;br&gt;(krypterat)" style="ellipse;whiteSpace=wrap;html=1;" vertex="1" parent="1">
          <mxGeometry x="-45" y="10" width="120" height="80" as="geometry" />
        </mxCell>
        <mxCell id="YfYcxpr3XRQJxf8hliLk-15" value="OrderStatus" style="rounded=0;whiteSpace=wrap;html=1;" vertex="1" parent="1">
          <mxGeometry x="-220" y="420" width="120" height="60" as="geometry" />
        </mxCell>
        <mxCell id="YfYcxpr3XRQJxf8hliLk-18" style="edgeStyle=orthogonalEdgeStyle;curved=1;rounded=0;orthogonalLoop=1;jettySize=auto;html=1;exitX=0;exitY=0.5;exitDx=0;exitDy=0;entryX=1;entryY=0.5;entryDx=0;entryDy=0;endArrow=none;endFill=0;" edge="1" parent="1" source="YfYcxpr3XRQJxf8hliLk-16" target="YfYcxpr3XRQJxf8hliLk-15">
          <mxGeometry relative="1" as="geometry" />
        </mxCell>
        <mxCell id="YfYcxpr3XRQJxf8hliLk-16" value="" style="rhombus;whiteSpace=wrap;html=1;" vertex="1" parent="1">
          <mxGeometry x="-50" y="410" width="80" height="80" as="geometry" />
        </mxCell>
        <mxCell id="YfYcxpr3XRQJxf8hliLk-20" style="edgeStyle=orthogonalEdgeStyle;curved=1;rounded=0;orthogonalLoop=1;jettySize=auto;html=1;exitX=1;exitY=0.5;exitDx=0;exitDy=0;entryX=0.5;entryY=0;entryDx=0;entryDy=0;endArrow=none;endFill=0;" edge="1" parent="1" source="YfYcxpr3XRQJxf8hliLk-19" target="YfYcxpr3XRQJxf8hliLk-15">
          <mxGeometry relative="1" as="geometry" />
        </mxCell>
        <mxCell id="YfYcxpr3XRQJxf8hliLk-19" value="Status" style="ellipse;whiteSpace=wrap;html=1;" vertex="1" parent="1">
          <mxGeometry x="-290" y="320" width="90" height="60" as="geometry" />
        </mxCell>
        <mxCell id="YfYcxpr3XRQJxf8hliLk-22" style="edgeStyle=orthogonalEdgeStyle;curved=1;rounded=0;orthogonalLoop=1;jettySize=auto;html=1;exitX=1;exitY=0.5;exitDx=0;exitDy=0;endArrow=none;endFill=0;entryX=0.5;entryY=0;entryDx=0;entryDy=0;" edge="1" parent="1" source="YfYcxpr3XRQJxf8hliLk-21" target="_CHvoFrD6mSaw10JFjYY-64">
          <mxGeometry relative="1" as="geometry">
            <mxPoint x="360" y="850" as="targetPoint" />
          </mxGeometry>
        </mxCell>
        <mxCell id="YfYcxpr3XRQJxf8hliLk-21" value="MÃ¤ts i" style="rhombus;whiteSpace=wrap;html=1;" vertex="1" parent="1">
          <mxGeometry x="210" y="765" width="80" height="80" as="geometry" />
        </mxCell>
        <mxCell id="YfYcxpr3XRQJxf8hliLk-23" value="Storlek" style="ellipse;whiteSpace=wrap;html=1;" vertex="1" parent="1">
          <mxGeometry x="290" y="725" width="105" height="60" as="geometry" />
        </mxCell>
        <mxCell id="YfYcxpr3XRQJxf8hliLk-29" style="edgeStyle=orthogonalEdgeStyle;curved=1;rounded=0;orthogonalLoop=1;jettySize=auto;html=1;exitX=0;exitY=0.5;exitDx=0;exitDy=0;entryX=0.75;entryY=0;entryDx=0;entryDy=0;endArrow=none;endFill=0;" edge="1" parent="1" source="YfYcxpr3XRQJxf8hliLk-28" target="_CHvoFrD6mSaw10JFjYY-2">
          <mxGeometry relative="1" as="geometry" />
        </mxCell>
        <mxCell id="YfYcxpr3XRQJxf8hliLk-28" value="Admin" style="ellipse;whiteSpace=wrap;html=1;" vertex="1" parent="1">
          <mxGeometry x="205" y="10" width="120" height="80" as="geometry" />
        </mxCell>
      </root>
    </mxGraphModel>
  </diagram>
</mxfile>
